######## ######## ######## ##          ######## ########  ######## ######## 
##       ##       ##       ##          ##       ##     ## ##       ##       
##       ##       ##       ##          ##       ##     ## ##       ##       
######   ######   ######   ##          ######   ########  ######   ######   
##       ##       ##       ##          ##       ##   ##   ##       ##       
##       ##       ##       ##          ##       ##    ##  ##       ##       
##       ######## ######## ########    ##       ##     ## ######## ########   

 Genre:Drama | Horror | Thriller
 Language:English
 IMDb:  http://www.imdb.com/title/tt1161864/
 Source:DVD
 Subtitles:Romana/English


 Format : AVI
 Format/Info : Audio Video Interleave
 File size : 1.07 GiB
 Duration : 1h 53mn
 Overall bit rate : 1 352 Kbps


 Video
 ID : 0
 Format : MPEG-4 Visual
 Format profile : Advanced Simple@L5
 Format settings, BVOP : Yes
 Format settings, QPel : No
 Format settings, GMC : No warppoints
 Format settings, Matrix : Default (H.263)
 Muxing mode : Packed bitstream
 Codec ID : XVID
 Codec ID/Hint : XviD
 Duration : 1h 53mn
 Bit rate : 959 Kbps
 Width : 720 pixels
 Height : 304 pixels
 Display aspect ratio : 2.35:1
 Frame rate : 23.976 fps
 Color space : YUV
 Chroma subsampling : 4:2:0
 Bit depth : 8 bits
 Scan type : Progressive
 Bits/(Pixel*Frame) : 0.183
 Stream size : 780 MiB (71%)
 Writing library : XviD 1.2.1 (UTC 2008-12-04)

 Audio
 ID : 1
 Format : AC-3
 Format/Info : Audio Coding 3
 Mode extension : CM (complete main)
 Codec ID : 2000
 Duration : 1h 53mn
 Bit rate mode : Constant
 Bit rate : 384 Kbps
 Channel(s) : 6 channels
 Channel positions : Front: L C R, Side: L R, LFE
 Sampling rate : 48.0 KHz
 Bit depth : 16 bits
 Video delay : 1s 0ms
 Stream size : 312 MiB (28%)
 Alignment : Split accross interleaves
 Interleave, duration : 42 ms (1.00 video frame)
 Interleave, preload duration : 500 ms


 Plot:
 An American seminary student travels to Italy to take an exorcism course.


Greets:

 INK,CRYS,IMAGINE,LKRG,FXG,3Li,FLAWL3SS,TA,iLLUSiON,ViSiON,DTRG SAFCuk009,LU,TheFalcon007,MYSTiC,PrisM,Noir,WBZ,LAP,Rx,Kingdom,SAFCuk009+Fabreezy,HDLiTE,TWiZTED,ExtraTorrentRG.ELEKTRI4KA,MAGNAT,CM8
 And to all the other p2p grps past and present




----------------------------------          
http://thepiratebay.org/user/hiest
----------------------------------




Screenshots:
 
http://img855.imageshack.us/img855/3966/vlcsnap00001c.png
 
http://img17.imageshack.us/img17/9831/vlcsnap00002dj.png
 
http://img17.imageshack.us/img17/9831/vlcsnap00002dj.png
 
http://img263.imageshack.us/img263/9309/vlcsnap00004p.png
 
http://img849.imageshack.us/img849/3269/vlcsnap00005z.png

######## ######## ######## ##          ######## ########  ######## ######## 
##       ##       ##       ##          ##       ##     ## ##       ##       
##       ##       ##       ##          ##       ##     ## ##       ##       
######   ######   ######   ##          ######   ########  ######   ######   
##       ##       ##       ##          ##       ##   ##   ##       ##       
##       ##       ##       ##          ##       ##    ##  ##       ##       
##       ######## ######## ########    ##       ##     ## ######## ######## 